# xmcd
#
# Track frame offsets:
#	150
#	19051
#	43548
#	66695
#	93024
#	123622
#	145629
#	166274
#	194647
#	216938
#	234171
#	258375
#	280654
#
# Disc length: 4014 seconds
#
# Revision: 1
# Processed by: cddbd v1.5.2PL0 Copyright (c) Steve Scherf et al.
# Submitted via: audiograbber 1.83.01
#
DISCID=b90fac0d
DTITLE=Blues Disciples - Gravy train
DYEAR=2018
DGENRE=Blues
TTITLE0=Ten more days
TTITLE1=Hey baby
TTITLE2=That feeling
TTITLE3=Left for dead
TTITLE4=Gaslightin' woman
TTITLE5=Twenty two children
TTITLE6=Trying to stay in love
TTITLE7=Ain't done lovin' you
TTITLE8=Right woman at the wrong time
TTITLE9=Sad old kind of blues
TTITLE10=Everybody is a Cadillac
TTITLE11=It's true
TTITLE12=Gravy train
EXTD=
EXTT0=
EXTT1=
EXTT2=
EXTT3=
EXTT4=
EXTT5=
EXTT6=
EXTT7=
EXTT8=
EXTT9=
EXTT10=
EXTT11=
EXTT12=
PLAYORDER=
